M48
;Layer_Color=9474304
;FILE_FORMAT=4:4
METRIC,LZ
;TYPE=PLATED
T1F00S00C0.3000
T2F00S00C0.7100
T3F00S00C0.8128
T4F00S00C0.8500
T5F00S00C1.2000
T6F00S00C3.0000
%
T01
X00137Y0002325
Y0003325
Y0004325
X00137Y0005325
X00148873Y0005314
X00148873Y0004314
Y0003314
Y0002314
X00160746
Y0003314
Y0004314
X00160746Y0005314
X00172618
X00172618Y0004314
Y0003314
Y0002314
X002695Y0002575
Y0003575
Y0004575
X002695Y0005575
X00281373Y0005564
X00281373Y0004564
Y0003564
Y0002564
X00293246
Y0003564
Y0004564
X00293246Y0005564
X00305118
X00305118Y0004564
Y0003564
Y0002564
X003025Y001725
X0033989Y00180009
X0034989
X0035989
X0036989
X0037989Y00180009
Y00191882
X0036989Y00191882
X0035989
X0034989
X0033989
Y00203755
X0034
X0034989
X0035
X0035989
X0036
X0037
X0038Y00203755
X0037989Y00168136
X0036989Y00168136
X0035989
X0034989
X0035Y00215627
X0034
Y002275
X0033989Y00236882
X0032989
X0031989
X0030989
X0031Y00248755
X0032
X0033
X0034
Y00260627
X0033
X0032
X0031
Y002725
X0032
X0033
X0034
X00295Y002625
X002875Y002775
X00262465Y00263801
X00235Y00265
X0024491Y00235918
X0024491Y00225918
Y00215918
Y00205918
X00256783Y00205808
Y00215808
Y00225808
X00256783Y00235808
X00268655
X00268655Y00225808
Y00215808
Y00205808
X00280528
Y00215808
Y00225808
X00280528Y00235808
X002Y00235
X0019Y00235
X0019011Y00225618
X0018011
X0018Y00235
X0017
X0017011Y00225618
X0017Y00213745
X0018
X0019
Y00201873
X0018
X0017
Y0019
X0018
X0019
Y00178127
X0018
X0017
Y00166255
X0018
X0019
X0018989Y00154382
X0017989
X0016989
X0017Y00246873
X0018
X0019
X002Y00246873
Y00258745
X0019Y00258745
X0018
X0017
X0017011Y00270618
X0018011
X0019011
X0014689Y00290132
X0013689
X0012689
Y00302005
X0013689
X0014689
Y00313877
X0013689
X0012689
X00127Y0032575
X00137
X00147
X001445Y0038575
X001345
X001245
X00168199Y0039075
Y0038075
Y0037075
X00178524
Y0038075
Y0039075
X00188849
Y0038075
Y0037075
X00199175
Y0038075
Y0039075
X002095
Y0038075
Y0037075
X00232Y0037075
Y0036325
Y0035575
Y0034825
X00241375
Y0035575
Y0036325
Y0037075
X00241375Y0037825
X00232
X0025075
X0025075Y0037075
Y0036325
Y0035575
Y0034825
X00260125
Y0035575
Y0036325
Y0037075
X00260125Y0037825
X002695
X002695Y0037075
Y0036325
Y0035575
Y0034825
X003025Y003475
X00267Y0039575
X00257
X00247
X00208511Y00330768
X00245Y001725
X00247Y00407623
X00257
X00267
X00257Y0041825
X00247
X00237Y0041825
Y0042825
Y0043825
X00225127
Y0042825
Y0041825
X00213255
Y0042825
Y0043825
X00201382Y0043836
Y0042836
Y0041836
X00189509
Y0042836
Y0043836
X00177637
Y0042836
Y0041836
X00165764Y0041847
Y0042847
Y0043847
X00153891
Y0042847
Y0041847
X00142018
Y0042847
Y0043847
X00130146Y0042858
Y0041858
X001345Y00409496
X001445
Y00397623
X001345
X001245
Y00409496
X00168199Y0040075
X00178524
X00188849
X00199175
X002095
X00219403Y00400359
X002895Y0045825
X002995
X003095
X003195Y0045825
Y00470123
X003095Y00470123
X002995
X002895
Y00481996
X002995
X003095
X003195Y00481996
X0031961Y00493868
X0030961Y00493868
X0029961
X0028961
T02
X003141Y0011575
X003395
X003649
X002324Y0046825
X00207
X001816
T03
X001145Y0007555
Y0010095
X003473Y0029
X003727
T04
X002285Y0004675
Y0009675
T05
X00052Y0004825
Y0009825
X003445Y0041325
Y0046325
T06
X00352Y0004075
X000395Y0046075
M30
