G04*
G04 #@! TF.GenerationSoftware,Altium Limited,Altium Designer,21.6.4 (81)*
G04*
G04 Layer_Color=16711935*
%FSLAX44Y44*%
%MOMM*%
G71*
G04*
G04 #@! TF.SameCoordinates,349311D0-8F54-414D-B441-84A76E2CFB74*
G04*
G04*
G04 #@! TF.FilePolarity,Negative*
G04*
G01*
G75*
%ADD31R,1.4032X1.4032*%
%ADD32C,1.4032*%
%ADD33R,1.5240X1.5240*%
%ADD34C,1.5240*%
%ADD35R,1.5240X1.5240*%
%ADD36C,1.4212*%
%ADD37R,1.4212X1.4212*%
%ADD38C,2.2352*%
%ADD39P,2.4194X8X22.5*%
%ADD40C,0.8032*%
%ADD41C,4.2032*%
D31*
X228500Y96750D02*
D03*
D32*
Y46750D02*
D03*
D33*
X347300Y290000D02*
D03*
D34*
X372700D02*
D03*
X114500Y75550D02*
D03*
D35*
Y100950D02*
D03*
D36*
X364900Y115750D02*
D03*
X339500D02*
D03*
X181600Y468250D02*
D03*
X207000D02*
D03*
D37*
X314100Y115750D02*
D03*
X232400Y468250D02*
D03*
D38*
X52000Y48250D02*
D03*
X344500Y463250D02*
D03*
D39*
X52000Y98250D02*
D03*
X344500Y413250D02*
D03*
D40*
X130146Y428580D02*
D03*
X165764Y438470D02*
D03*
Y428470D02*
D03*
Y418470D02*
D03*
X153891D02*
D03*
Y428470D02*
D03*
Y438470D02*
D03*
X142018Y418470D02*
D03*
Y428470D02*
D03*
Y438470D02*
D03*
X130146Y418580D02*
D03*
X165764Y428470D02*
D03*
X201382Y438360D02*
D03*
Y428360D02*
D03*
Y418360D02*
D03*
X189509D02*
D03*
Y428360D02*
D03*
Y438360D02*
D03*
X177637Y418360D02*
D03*
Y428360D02*
D03*
Y438360D02*
D03*
X165764Y418470D02*
D03*
Y438470D02*
D03*
X219403Y400359D02*
D03*
X126890Y290132D02*
D03*
X235000Y265000D02*
D03*
X262465Y263801D02*
D03*
X295000Y262500D02*
D03*
X360000Y203755D02*
D03*
X350000D02*
D03*
X340000D02*
D03*
Y215627D02*
D03*
X350000D02*
D03*
X340000Y227500D02*
D03*
X350000Y215627D02*
D03*
X349890Y180009D02*
D03*
X339890D02*
D03*
Y191882D02*
D03*
X349890D02*
D03*
X359890D02*
D03*
X339890Y203755D02*
D03*
X349890D02*
D03*
X359890D02*
D03*
X340000Y215627D02*
D03*
X329890Y236882D02*
D03*
X320000Y272500D02*
D03*
X330000D02*
D03*
X340000D02*
D03*
Y260627D02*
D03*
X330000D02*
D03*
X320000D02*
D03*
X340000Y248755D02*
D03*
X330000D02*
D03*
X320000D02*
D03*
X339890Y236882D02*
D03*
X319890D02*
D03*
D03*
X310000Y272500D02*
D03*
X320000D02*
D03*
X330000D02*
D03*
Y260627D02*
D03*
X320000D02*
D03*
X310000D02*
D03*
X330000Y248755D02*
D03*
X320000D02*
D03*
X310000D02*
D03*
X329890Y236882D02*
D03*
X309890D02*
D03*
X179890Y154382D02*
D03*
X170000Y190000D02*
D03*
X180000D02*
D03*
X190000D02*
D03*
Y178127D02*
D03*
X180000D02*
D03*
X170000D02*
D03*
X190000Y166255D02*
D03*
X180000D02*
D03*
X170000D02*
D03*
X189890Y154382D02*
D03*
X169890D02*
D03*
X180110Y225618D02*
D03*
X190000Y190000D02*
D03*
X180000D02*
D03*
X170000D02*
D03*
Y201873D02*
D03*
X180000D02*
D03*
X190000D02*
D03*
X170000Y213745D02*
D03*
X180000D02*
D03*
X190000D02*
D03*
X170110Y225618D02*
D03*
X190110D02*
D03*
X302500Y172500D02*
D03*
Y347500D02*
D03*
X287500Y277500D02*
D03*
X267000Y395750D02*
D03*
X190000Y258745D02*
D03*
X180000Y246873D02*
D03*
X180110Y270618D02*
D03*
X190000Y246873D02*
D03*
X190110Y270618D02*
D03*
X200000Y246873D02*
D03*
Y258745D02*
D03*
X180000Y258745D02*
D03*
X256783Y235808D02*
D03*
X256783Y225808D02*
D03*
X268655Y235808D02*
D03*
X280528Y225808D02*
D03*
Y215808D02*
D03*
X256783D02*
D03*
X280528Y235808D02*
D03*
X244910Y225918D02*
D03*
X268655Y225808D02*
D03*
X244910Y235918D02*
D03*
X244910Y215918D02*
D03*
X268655Y215808D02*
D03*
X280528Y205808D02*
D03*
X256783D02*
D03*
X244910Y205918D02*
D03*
X268655Y205808D02*
D03*
X170110Y270618D02*
D03*
X146890Y313877D02*
D03*
X136890Y302005D02*
D03*
X146890Y290132D02*
D03*
Y302005D02*
D03*
X170000Y246873D02*
D03*
X136890Y290132D02*
D03*
X126890Y302005D02*
D03*
X170000Y258745D02*
D03*
X126890Y313877D02*
D03*
X136890D02*
D03*
X180000Y235000D02*
D03*
X208511Y330768D02*
D03*
X190000Y235000D02*
D03*
X200000Y235000D02*
D03*
X370000Y203755D02*
D03*
X379890Y191882D02*
D03*
X369890Y191882D02*
D03*
X380000Y203755D02*
D03*
X209500Y400750D02*
D03*
X232000Y378250D02*
D03*
X199175Y400750D02*
D03*
Y380750D02*
D03*
Y390750D02*
D03*
X209500Y380750D02*
D03*
Y390750D02*
D03*
X225127Y438250D02*
D03*
Y418250D02*
D03*
X237000D02*
D03*
Y428250D02*
D03*
X225127D02*
D03*
X237000Y438250D02*
D03*
X201382Y428360D02*
D03*
Y418360D02*
D03*
X213255Y428250D02*
D03*
Y418250D02*
D03*
Y438250D02*
D03*
X250750Y378250D02*
D03*
X257000Y407623D02*
D03*
Y395750D02*
D03*
X247000Y407623D02*
D03*
X247000Y418250D02*
D03*
X247000Y395750D02*
D03*
X241375Y378250D02*
D03*
X289610Y493868D02*
D03*
X127000Y325750D02*
D03*
X299610Y493868D02*
D03*
X241375Y370750D02*
D03*
X250750D02*
D03*
X232000D02*
D03*
X309500Y458250D02*
D03*
X201382Y438360D02*
D03*
X209500Y370750D02*
D03*
X188849Y400750D02*
D03*
X199175Y370750D02*
D03*
X232000Y355750D02*
D03*
X250750Y348250D02*
D03*
X241375Y355750D02*
D03*
Y363250D02*
D03*
X269500Y355750D02*
D03*
X232000Y363250D02*
D03*
Y348250D02*
D03*
X241375D02*
D03*
X260125D02*
D03*
Y363250D02*
D03*
X269500Y348250D02*
D03*
Y363250D02*
D03*
X250750Y355750D02*
D03*
X260125D02*
D03*
X250750Y363250D02*
D03*
X319500Y458250D02*
D03*
Y481996D02*
D03*
Y470123D02*
D03*
X309500Y481996D02*
D03*
X309610Y493868D02*
D03*
X309500Y470123D02*
D03*
X148873Y43140D02*
D03*
X269500Y45750D02*
D03*
X172618Y53140D02*
D03*
X269500Y35750D02*
D03*
X160746Y43140D02*
D03*
X160746Y53140D02*
D03*
X148873Y33140D02*
D03*
X172618D02*
D03*
X160746D02*
D03*
X172618Y43140D02*
D03*
X188849Y390750D02*
D03*
Y370750D02*
D03*
Y380750D02*
D03*
X178524Y390750D02*
D03*
Y370750D02*
D03*
Y380750D02*
D03*
X168199Y370750D02*
D03*
X160746Y23140D02*
D03*
X137000Y23250D02*
D03*
X147000Y325750D02*
D03*
X137000Y43250D02*
D03*
Y325750D02*
D03*
X178524Y400750D02*
D03*
X172618Y23140D02*
D03*
X148873D02*
D03*
X137000Y33250D02*
D03*
X305118Y25640D02*
D03*
Y45640D02*
D03*
X293246D02*
D03*
Y35640D02*
D03*
Y25640D02*
D03*
X305118Y35640D02*
D03*
X170000Y235000D02*
D03*
X148873Y53140D02*
D03*
X137000Y53250D02*
D03*
X369890Y180009D02*
D03*
X379890Y180009D02*
D03*
Y168136D02*
D03*
X359890Y180009D02*
D03*
X281373Y35640D02*
D03*
Y45640D02*
D03*
X281373Y55640D02*
D03*
X269500Y55750D02*
D03*
X289500Y481996D02*
D03*
Y458250D02*
D03*
Y470123D02*
D03*
X299500D02*
D03*
X267000Y407623D02*
D03*
X260125Y378250D02*
D03*
X257000Y418250D02*
D03*
X260125Y370750D02*
D03*
X269500D02*
D03*
X299500Y481996D02*
D03*
X269500Y378250D02*
D03*
X299500Y458250D02*
D03*
X134500Y385750D02*
D03*
Y409496D02*
D03*
X124500Y397623D02*
D03*
Y385750D02*
D03*
X144500Y409496D02*
D03*
Y397623D02*
D03*
Y385750D02*
D03*
X168199Y380750D02*
D03*
X134500Y397623D02*
D03*
X168199Y400750D02*
D03*
X124500Y409496D02*
D03*
X168199Y390750D02*
D03*
X305118Y55640D02*
D03*
X293246D02*
D03*
X359890Y168136D02*
D03*
X349890D02*
D03*
X319610Y493868D02*
D03*
X281373Y25640D02*
D03*
X245000Y172500D02*
D03*
X269500Y25750D02*
D03*
X369890Y168136D02*
D03*
D41*
X352000Y40750D02*
D03*
X39500Y460750D02*
D03*
M02*
