G04*
G04 #@! TF.GenerationSoftware,Altium Limited,Altium Designer,21.6.4 (81)*
G04*
G04 Layer_Color=16711935*
%FSLAX44Y44*%
%MOMM*%
G71*
G04*
G04 #@! TF.SameCoordinates,349311D0-8F54-414D-B441-84A76E2CFB74*
G04*
G04*
G04 #@! TF.FilePolarity,Positive*
G04*
G01*
G75*
%ADD10C,0.1270*%
%ADD11C,0.2000*%
%ADD12C,0.0000*%
%ADD13C,0.2540*%
%ADD14C,0.1524*%
%ADD56C,0.0254*%
D10*
X291000Y71750D02*
G03*
X291000Y71750I-62500J0D01*
G01*
X291850Y91650D02*
Y139950D01*
Y91650D02*
X387150D01*
Y139950D01*
X291850D02*
X387150D01*
X254650Y444050D02*
Y492350D01*
X159350D02*
X254650D01*
X159350Y444050D02*
Y492350D01*
Y444050D02*
X254650D01*
D11*
X229500Y141750D02*
G03*
X229500Y141750I-1000J0D01*
G01*
X302400Y115750D02*
G03*
X302400Y115750I-1000J0D01*
G01*
X246100Y468250D02*
G03*
X246100Y468250I-1000J0D01*
G01*
D12*
X237108Y217702D02*
G03*
X237108Y223798I0J3048D01*
G01*
X27056Y365750D02*
G03*
X27056Y365750I-762J0D01*
G01*
Y233250D02*
G03*
X27056Y233250I-762J0D01*
G01*
D13*
X339680Y289999D02*
G03*
X342768Y279231I20320J0D01*
G01*
X342058Y299540D02*
G03*
X339680Y290000I17941J-9540D01*
G01*
X114499Y108570D02*
G03*
X103731Y105483I0J-20320D01*
G01*
X124040Y106192D02*
G03*
X114500Y108570I-9540J-17941D01*
G01*
X375748Y277300D02*
Y302700D01*
X101800Y72502D02*
X127200D01*
D14*
X242442Y178840D02*
G03*
X242442Y182904I0J2032D01*
G01*
D02*
G03*
X242442Y178840I0J-2032D01*
G01*
X360000Y279840D02*
G03*
X370160Y290000I0J10160D01*
G01*
X360000Y283650D02*
G03*
X366350Y290000I0J6350D01*
G01*
X360000Y300160D02*
G03*
X349840Y290000I0J-10160D01*
G01*
X360000Y296350D02*
G03*
X353650Y290000I0J-6350D01*
G01*
X371674Y280204D02*
G03*
X375240Y290000I-11674J9796D01*
G01*
Y290000D02*
G03*
X371502Y299998I-15240J0D01*
G01*
X344760Y289999D02*
G03*
X348675Y279802I15240J0D01*
G01*
X348326Y299796D02*
G03*
X344760Y290000I11674J-9796D01*
G01*
X104340Y88250D02*
G03*
X114500Y78090I10160J0D01*
G01*
X108150Y88250D02*
G03*
X114500Y81900I6350J0D01*
G01*
X124660Y88250D02*
G03*
X114500Y98410I-10160J0D01*
G01*
X120850Y88250D02*
G03*
X114500Y94600I-6350J0D01*
G01*
X104704Y76576D02*
G03*
X114500Y73010I9796J11674D01*
G01*
X114500D02*
G03*
X124498Y76748I0J15240D01*
G01*
X114500Y103490D02*
G03*
X104302Y99576I0J-15240D01*
G01*
X124296Y99925D02*
G03*
X114500Y103490I-9796J-11674D01*
G01*
X240918Y198652D02*
X243966D01*
X240918Y188746D02*
Y198652D01*
Y188746D02*
X243966D01*
Y198652D01*
X247522D02*
X250570D01*
X247522Y188746D02*
Y198652D01*
Y188746D02*
X250570D01*
Y198652D01*
X254126D02*
X256920D01*
X254126Y188746D02*
Y198652D01*
Y188746D02*
X256920D01*
Y198652D01*
X260476D02*
X263524D01*
X260476Y188746D02*
Y198652D01*
Y188746D02*
X263524D01*
Y198652D01*
X267080D02*
X269874D01*
X267080Y188746D02*
Y198652D01*
Y188746D02*
X269874D01*
Y198652D01*
X273430D02*
X276478D01*
X273430Y188746D02*
Y198652D01*
Y188746D02*
X276478D01*
Y198652D01*
X280034D02*
X283082D01*
X280034Y188746D02*
Y198652D01*
Y188746D02*
X283082D01*
Y198652D01*
X280034Y242848D02*
X283082D01*
Y252754D01*
X280034D02*
X283082D01*
X280034Y242848D02*
Y252754D01*
X273430Y242848D02*
X276478D01*
Y252754D01*
X273430D02*
X276478D01*
X273430Y242848D02*
Y252754D01*
X267080Y242848D02*
X269874D01*
Y252754D01*
X267080D02*
X269874D01*
X267080Y242848D02*
Y252754D01*
X260476Y242848D02*
X263524D01*
Y252754D01*
X260476D02*
X263524D01*
X260476Y242848D02*
Y252754D01*
X254126Y242848D02*
X256920D01*
Y252754D01*
X254126D02*
X256920D01*
X254126Y242848D02*
Y252754D01*
X247522Y242848D02*
X250570D01*
Y252754D01*
X247522D02*
X250570D01*
X247522Y242848D02*
Y252754D01*
X240918Y242848D02*
X243966D01*
Y252754D01*
X240918D02*
X243966D01*
X240918Y242848D02*
Y252754D01*
X286892Y198652D02*
Y242848D01*
X237108D02*
X286892D01*
X237108Y223798D02*
Y242848D01*
Y217702D02*
Y223798D01*
Y198652D02*
Y217702D01*
Y198652D02*
X286892D01*
D56*
X25532Y304282D02*
Y427218D01*
X148468D01*
Y304282D02*
Y427218D01*
X25532Y304282D02*
X148468D01*
X25532Y171782D02*
Y294718D01*
X148468D01*
Y171782D02*
Y294718D01*
X25532Y171782D02*
X148468D01*
M02*
